HIERARCHY
ROOT Hips
{
    OFFSET 13.225688934326172 94.27659225463867 -18.311296463012695
    CHANNELS 6 Xposition Yposition Zposition Zrotation Xrotation Yrotation
    JOINT RightUpLeg
    {
        OFFSET -13.225688934326172 0.0 0.0
        CHANNELS 3 Zrotation Xrotation Yrotation
        JOINT RightLeg
        {
            OFFSET 0.0 -48.498348236083984 0.0
            CHANNELS 3 Zrotation Xrotation Yrotation
            JOINT RightFoot
            {
                OFFSET 0.0 -45.77824401855469 0.0
                CHANNELS 3 Zrotation Xrotation Yrotation
                End Site
                {
                    OFFSET 0.0 0.0 18.311296463012695
                }
            }
        }
    }
    JOINT LeftUpLeg
    {
        OFFSET 13.225688934326172 0.0 0.0
        CHANNELS 3 Zrotation Xrotation Yrotation
        JOINT LeftLeg
        {
            OFFSET 0.0 -48.498348236083984 0.0
            CHANNELS 3 Zrotation Xrotation Yrotation
            JOINT LeftFoot
            {
                OFFSET 0.0 -45.77824401855469 0.0
                CHANNELS 3 Zrotation Xrotation Yrotation
                End Site
                {
                    OFFSET 0.0 0.0 18.311296463012695
                }
            }
        }
    }
    JOINT Spine
    {
        OFFSET 0.0 25.863996505737305 0.0
        CHANNELS 3 Zrotation Xrotation Yrotation
        JOINT Spine3
        {
            OFFSET 0.0 25.649696350097656 0.0
            CHANNELS 3 Zrotation Xrotation Yrotation
            JOINT Neck
            {
                OFFSET 0.0 11.566766738891602 0.0
                CHANNELS 3 Zrotation Xrotation Yrotation
                End Site
                {
                    OFFSET 0.0 4.626706600189209 0.0
                }
            }
            JOINT LeftArm
            {
                OFFSET 13.888811111450195 0.0 0.0
                CHANNELS 3 Zrotation Xrotation Yrotation
                JOINT LeftForeArm
                {
                    OFFSET 29.437061309814453 0.0 0.0
                    CHANNELS 3 Zrotation Xrotation Yrotation
                    JOINT LeftHand
                    {
                        OFFSET 23.665042877197266 0.0 0.0
                        CHANNELS 3 Zrotation Xrotation Yrotation
                        End Site
                        {
                            OFFSET 9.466018676757812 0.0 0.0
                        }
                    }
                }
            }
            JOINT RightArm
            {
                OFFSET -13.888811111450195 0.0 0.0
                CHANNELS 3 Zrotation Xrotation Yrotation
                JOINT RightForeArm
                {
                    OFFSET -29.437061309814453 0.0 0.0
                    CHANNELS 3 Zrotation Xrotation Yrotation
                    JOINT RightHand
                    {
                        OFFSET -23.665042877197266 0.0 0.0
                        CHANNELS 3 Zrotation Xrotation Yrotation
                        End Site
                        {
                            OFFSET -9.466018676757812 0.0 0.0
                        }
                    }
                }
            }
        }
    }
}
MOTION
Frames: 4
Frame Time: 0.03333333333333333
0.00045232108095660806 94.98225402832031 -0.0007151229656301439 4.6963110329017725 -14.096058584759406 11.191762377187146 -0.026935756490214735 15.938460406147126 -2.392925103085714 -8.180492721889047 27.879970789044346 -0.056688569894673975 -1.5902773407317582e-15 1.1034765745125397e-32 -7.951386703658791e-16 -0.04761167724168947 16.996243049436064 -2.5415356759335714 -3.873770890176326 10.545851778489896 -0.80607368949804 3.975693351829396e-16 5.689801087330283e-33 1.6399735076296259e-15 -15.263019046198723 21.05360544804873 2.3738614916010454 7.478115542094796e-08 5.697363427582122e-08 14.26044328637152 9.282994511945867 -4.441542862010574 158.25094537907714 120.79427527856697 20.809934054118948 -172.31135505822832 3.8178690894507565e-06 4.95080618335728e-07 74.31292931800404 -3.1805546814635168e-15 8.827812596100317e-32 -3.1805546814635168e-15 -139.54669449009626 -45.917020302615846 126.30968343541494 -4.917078530044557e-06 -1.9457112085734212e-07 -79.00458705456211 0.0 -6.3611093629270335e-15 0.0
0.000441876269178465 94.98220825195312 -0.0006917602149769664 4.369517615875128 -13.83362129773057 11.077887200920802 0.3299748148594275 15.923832264925366 -2.4242909838982354 -7.678079281480875 26.827117055228108 -0.33373954047176385 0.0 0.0 3.9756933518293955e-16 0.44498800446444836 16.482304530827278 -2.540917730989564 -3.7572944953308838 10.366846004056379 -0.8619711523835724 6.465683053784412e-35 -2.4848083448933725e-17 2.981770013872047e-16 -15.691877447290672 21.103613427268385 2.622115396252703 8.631282104989769e-07 -1.8478764655975565e-07 14.393325154247888 9.284809653525746 -5.220610192479058 159.18794942464106 120.42985525172732 20.57812555432736 -172.72096170684668 -1.59733243099765e-06 1.593872354925152e-06 73.87398338610662 3.1805546814635164e-15 8.827812596100317e-32 3.1805546814635164e-15 -139.81255608345893 -46.416113626439454 126.7626507952391 2.737078128061849e-06 -3.7419182619396906e-07 -78.75799396887734 0.0 0.0 -1.5902773407317582e-15
0.000414667883887887 94.98223114013672 -0.000716672744601965 4.123556890385377 -13.3954225289989 10.839184816245272 0.608951653952765 16.109722125623634 -2.556808280134291 -7.601559404218522 24.65234995591389 -0.4855090567856382 0.0 0.0 0.0 0.8086533775979721 16.035836432769027 -2.6029685803385987 -3.5535585821085927 9.743728736051269 -0.9234227568545192 1.185375226527142e-34 2.4848083448933722e-17 -5.466578358765419e-16 -16.033771622447794 21.101507948306185 2.7131600153188353 6.821534670964583e-07 -4.690638340480364e-07 14.818551470671824 9.014151527157816 -5.893848707265507 159.76999928787615 120.52748735394736 20.428566926064242 -172.4460258419018 2.1138247099023706e-06 -3.9823547103452434e-06 71.91107607065047 -3.1805546814635168e-15 7.951386703658792e-15 2.2069531490250793e-31 -137.90596249614063 -45.795581947472854 129.34480086017405 -4.848335216202879e-06 -1.0958797041867045e-06 -78.19790422642025 1.5902773407317584e-15 6.3611093629270335e-15 1.5902773407317584e-15
0.0004540093941614032 94.98221588134766 -0.0006984857609495521 3.810554563359961 -12.90816002526094 10.174371001364495 0.7388603429823595 16.067540442374113 -2.612395865616126 -6.902275221825905 22.635283134014102 -0.798921601974944 -4.310455369189608e-34 -4.969616689786745e-17 -9.93923337957349e-16 1.060294283674961 15.313323786300948 -2.58086700699323 -3.5975572977116257 9.387320602657105 -0.9420811498346916 0.0 0.0 1.1927080055488192e-15 -16.30175670487862 21.036275731784702 2.7703657851927876 -3.0193423059295657e-07 3.895776454218591e-07 15.072394360607293 8.899514068499562 -6.816416365776979 160.58531302591877 120.28998246021195 20.077327770719485 -172.53165904421937 -1.4532282941225727e-06 -5.597206258798375e-07 70.35330501273859 3.1805546814635176e-15 -1.5902773407317588e-15 4.4139062980501586e-32 -135.92912889027886 -45.91010880512649 131.94333353131074 3.4866250886288476e-06 -1.3308809225839518e-06 -76.06438455981764 0.0 0.0 0.0
